<svg xmlns="http://www.w3.org/2000/svg" xmlns:xlink="http://www.w3.org/1999/xlink" width="43.451" height="40" viewBox="0 0 43.451 40"><defs><style>.a{fill:none;}.b{clip-path:url(#a);}.c{fill:#0f0f0f;}.d{fill:#0f110f;}.e{fill:#0f1310;}.f{fill:#0f1510;}.g{fill:#0e1711;}.h{fill:#0e1911;}.i{fill:#0e1b11;}.j{fill:#0e1d12;}.k{fill:#0e1f12;}.l{fill:#0e2112;}.m{fill:#0d2313;}.n{fill:#0d2513;}.o{fill:#0d2714;}.p{fill:#0d2914;}.q{fill:#0d2b14;}.r{fill:#0d2d15;}.s{fill:#0c2f15;}.t{fill:#0c3115;}.u{fill:#0c3316;}.v{fill:#0c3516;}.w{fill:#0c3717;}.x{fill:#0c3917;}.y{fill:#0b3b17;}.z{fill:#0b3d18;}.aa{fill:#0b3f18;}.ab{fill:#0b4119;}.ac{fill:#0b4319;}.ad{fill:#0b4519;}.ae{fill:#0a471a;}.af{fill:#0a491a;}.ag{fill:#0a4b1a;}.ah{fill:#0a4d1b;}.ai{fill:#0a4f1b;}.aj{fill:#0a511c;}.ak{fill:#09531c;}.al{fill:#09551c;}.am{fill:#09571d;}.an{fill:#09591d;}.ao{fill:#095b1d;}.ap{fill:#095d1e;}.aq{fill:#085f1e;}.ar{fill:#08611f;}.as{fill:#08631f;}.at{fill:#08651f;}.au{fill:#086720;}.av{fill:#086920;}.aw{fill:#086b20;}.ax{fill:#076e21;}.ay{fill:#077021;}.az{fill:#077222;}.ba{fill:#077422;}.bb{fill:#077622;}.bc{fill:#077823;}.bd{fill:#067a23;}.be{fill:#067c24;}.bf{fill:#067e24;}.bg{fill:#068024;}.bh{fill:#068225;}.bi{fill:#068425;}.bj{fill:#058625;}.bk{fill:#058826;}.bl{fill:#058a26;}.bm{fill:#058c27;}.bn{fill:#058e27;}.bo{fill:#059027;}.bp{fill:#049228;}.bq{fill:#049428;}.br{fill:#049628;}.bs{fill:#049829;}.bt{fill:#049a29;}.bu{fill:#049c2a;}.bv{fill:#039e2a;}.bw{fill:#03a02a;}.bx{fill:#03a22b;}.by{fill:#03a42b;}.bz{fill:#03a62c;}.ca{fill:#03a82c;}.cb{fill:#02aa2c;}.cc{fill:#02ac2d;}.cd{fill:#02ae2d;}.ce{fill:#02b02d;}.cf{fill:#02b22e;}.cg{fill:#02b42e;}.ch{fill:#01b62f;}.ci{fill:#01b82f;}.cj{fill:#01ba2f;}.ck{fill:#01bc30;}.cl{fill:#01be30;}.cm{fill:#01c030;}.cn{fill:#00c231;}.co{fill:#00c431;}.cp{fill:#00c632;}.cq{fill:#00c832;}.cr{fill:#0f0f64;}.cs{fill:#0f0f65;}.ct{fill:#0f1066;}.cu{fill:#0f1067;}.cv{fill:#0e1168;}.cw{fill:#0e1169;}.cx{fill:#0e116b;}.cy{fill:#0e126c;}.cz{fill:#0e126d;}.da{fill:#0e126e;}.db{fill:#0d136f;}.dc{fill:#0d1370;}.dd{fill:#0d1471;}.de{fill:#0d1472;}.df{fill:#0d1473;}.dg{fill:#0d1574;}.dh{fill:#0c1575;}.di{fill:#0c1576;}.dj{fill:#0c1678;}.dk{fill:#0c1679;}.dl{fill:#0c177a;}.dm{fill:#0c177b;}.dn{fill:#0b177c;}.do{fill:#0b187d;}.dp{fill:#0b187e;}.dq{fill:#0b197f;}.dr{fill:#0b1980;}.ds{fill:#0b1981;}.dt{fill:#0a1a82;}.du{fill:#0a1a84;}.dv{fill:#0a1a85;}.dw{fill:#0a1b86;}.dx{fill:#0a1b87;}.dy{fill:#0a1c88;}.dz{fill:#091c89;}.ea{fill:#091c8a;}.eb{fill:#091d8b;}.ec{fill:#091d8c;}.ed{fill:#091d8d;}.ee{fill:#091e8e;}.ef{fill:#081e8f;}.eg{fill:#081f91;}.eh{fill:#081f92;}.ei{fill:#081f93;}.ej{fill:#082094;}.ek{fill:#082095;}.el{fill:#082096;}.em{fill:#072197;}.en{fill:#072198;}.eo{fill:#072299;}.ep{fill:#07229a;}.eq{fill:#07229b;}.er{fill:#07239d;}.es{fill:#06239e;}.et{fill:#06249f;}.eu{fill:#0624a0;}.ev{fill:#0624a1;}.ew{fill:#0625a2;}.ex{fill:#0625a3;}.ey{fill:#0525a4;}.ez{fill:#0526a5;}.fa{fill:#0526a6;}.fb{fill:#0527a7;}.fc{fill:#0527a8;}.fd{fill:#0527aa;}.fe{fill:#0428ab;}.ff{fill:#0428ac;}.fg{fill:#0428ad;}.fh{fill:#0429ae;}.fi{fill:#0429af;}.fj{fill:#042ab0;}.fk{fill:#032ab1;}.fl{fill:#032ab2;}.fm{fill:#032bb3;}.fn{fill:#032bb4;}.fo{fill:#032cb6;}.fp{fill:#032cb7;}.fq{fill:#022cb8;}.fr{fill:#022db9;}.fs{fill:#022dba;}.ft{fill:#022dbb;}.fu{fill:#022ebc;}.fv{fill:#022ebd;}.fw{fill:#012fbe;}.fx{fill:#012fbf;}.fy{fill:#012fc0;}.fz{fill:#0130c1;}.ga{fill:#0130c3;}.gb{fill:#0130c4;}.gc{fill:#0031c5;}.gd{fill:#0031c6;}.ge{fill:#0032c7;}.gf{fill:#0032c8;}.gg{fill:#00c634;}.gh{fill:#00c535;}.gi{fill:#00c337;}.gj{fill:#00c139;}.gk{fill:#00c03a;}.gl{fill:#00be3c;}.gm{fill:#00bd3d;}.gn{fill:#00bb3f;}.go{fill:#00b941;}.gp{fill:#00b842;}.gq{fill:#00b644;}.gr{fill:#00b446;}.gs{fill:#00b347;}.gt{fill:#00b149;}.gu{fill:#00b04a;}.gv{fill:#00ae4c;}.gw{fill:#00ac4e;}.gx{fill:#00ab4f;}.gy{fill:#00a951;}.gz{fill:#00a753;}.ha{fill:#00a654;}.hb{fill:#00a456;}.hc{fill:#00a258;}.hd{fill:#00a159;}.he{fill:#009f5b;}.hf{fill:#009e5c;}.hg{fill:#009c5e;}.hh{fill:#009a60;}.hi{fill:#009961;}.hj{fill:#009763;}.hk{fill:#009565;}.hl{fill:#009466;}.hm{fill:#009268;}.hn{fill:#009169;}.ho{fill:#008f6b;}.hp{fill:#008d6d;}.hq{fill:#008c6e;}.hr{fill:#008a70;}.hs{fill:#008872;}.ht{fill:#008773;}.hu{fill:#008575;}.hv{fill:#008476;}.hw{fill:#008278;}.hx{fill:#00807a;}.hy{fill:#007f7b;}.hz{fill:#007d7d;}.ia{fill:#007b7f;}.ib{fill:#007a80;}.ic{fill:#007882;}.id{fill:#007684;}.ie{fill:#007585;}.if{fill:#007387;}.ig{fill:#007288;}.ih{fill:#00708a;}.ii{fill:#006e8c;}.ij{fill:#006d8d;}.ik{fill:#006b8f;}.il{fill:#006991;}.im{fill:#006892;}.in{fill:#006694;}.io{fill:#006595;}.ip{fill:#006397;}.iq{fill:#006199;}.ir{fill:#00609a;}.is{fill:#005e9c;}.it{fill:#005c9e;}.iu{fill:#005b9f;}.iv{fill:#0059a1;}.iw{fill:#0058a2;}.ix{fill:#0056a4;}.iy{fill:#0054a6;}.iz{fill:#0053a7;}.ja{fill:#0051a9;}.jb{fill:#004fab;}.jc{fill:#004eac;}.jd{fill:#004cae;}.je{fill:#004ab0;}.jf{fill:#0049b1;}.jg{fill:#0047b3;}.jh{fill:#0046b4;}.ji{fill:#0044b6;}.jj{fill:#0042b8;}.jk{fill:#0041b9;}.jl{fill:#003fbb;}.jm{fill:#003dbd;}.jn{fill:#003cbe;}.jo{fill:#003ac0;}.jp{fill:#0039c1;}.jq{fill:#0037c3;}.jr{fill:#0035c5;}.js{fill:#0034c6;}</style><clipPath id="a"><rect class="a" width="43.451" height="40"/></clipPath></defs><g transform="translate(0 0)"><g class="b" transform="translate(0 0)"><path class="c" d="M19.136,8.846A8.846,8.846,0,1,0,27.982,0a8.847,8.847,0,0,0-8.846,8.847" transform="translate(-6.257 0)"/><path class="d" d="M19.344,9.206A8.846,8.846,0,1,0,28.19.359a8.846,8.846,0,0,0-8.846,8.847" transform="translate(-6.325 -0.117)"/><path class="e" d="M19.552,9.567A8.846,8.846,0,1,0,28.4.72a8.847,8.847,0,0,0-8.846,8.847" transform="translate(-6.393 -0.235)"/><path class="f" d="M19.76,9.927A8.846,8.846,0,1,0,28.606,1.08,8.847,8.847,0,0,0,19.76,9.927" transform="translate(-6.461 -0.353)"/><path class="g" d="M19.968,10.287a8.846,8.846,0,1,0,8.846-8.846,8.846,8.846,0,0,0-8.846,8.846" transform="translate(-6.529 -0.471)"/><path class="h" d="M20.176,10.647A8.846,8.846,0,1,0,29.022,1.8a8.847,8.847,0,0,0-8.846,8.846" transform="translate(-6.597 -0.589)"/><path class="i" d="M20.384,11.007A8.846,8.846,0,1,0,29.23,2.161a8.847,8.847,0,0,0-8.846,8.846" transform="translate(-6.665 -0.707)"/><path class="j" d="M20.592,11.368a8.846,8.846,0,1,0,8.846-8.846,8.846,8.846,0,0,0-8.846,8.846" transform="translate(-6.733 -0.825)"/><path class="k" d="M20.8,11.728a8.846,8.846,0,1,0,8.846-8.846A8.847,8.847,0,0,0,20.8,11.728" transform="translate(-6.801 -0.942)"/><path class="l" d="M21.008,12.088a8.846,8.846,0,1,0,8.846-8.846,8.847,8.847,0,0,0-8.846,8.846" transform="translate(-6.869 -1.06)"/><path class="m" d="M21.216,12.449A8.846,8.846,0,1,0,30.062,3.6a8.847,8.847,0,0,0-8.846,8.846" transform="translate(-6.937 -1.178)"/><path class="n" d="M21.424,12.809A8.846,8.846,0,1,0,30.27,3.962a8.847,8.847,0,0,0-8.846,8.847" transform="translate(-7.005 -1.295)"/><path class="o" d="M21.632,13.169a8.846,8.846,0,1,0,8.846-8.847,8.846,8.846,0,0,0-8.846,8.847" transform="translate(-7.073 -1.413)"/><path class="p" d="M21.84,13.53a8.846,8.846,0,1,0,8.846-8.847A8.846,8.846,0,0,0,21.84,13.53" transform="translate(-7.141 -1.531)"/><path class="q" d="M22.048,13.89a8.846,8.846,0,1,0,8.846-8.847,8.846,8.846,0,0,0-8.846,8.847" transform="translate(-7.209 -1.649)"/><path class="r" d="M22.256,14.249A8.846,8.846,0,1,0,31.1,5.4a8.846,8.846,0,0,0-8.846,8.846" transform="translate(-7.277 -1.767)"/><path class="s" d="M22.464,14.61A8.846,8.846,0,1,0,31.31,5.764a8.846,8.846,0,0,0-8.846,8.846" transform="translate(-7.345 -1.885)"/><path class="t" d="M22.672,14.97a8.846,8.846,0,1,0,8.846-8.846,8.846,8.846,0,0,0-8.846,8.846" transform="translate(-7.413 -2.002)"/><path class="u" d="M22.88,15.331a8.846,8.846,0,1,0,8.846-8.846,8.845,8.845,0,0,0-8.846,8.846" transform="translate(-7.481 -2.12)"/><path class="v" d="M23.088,15.691a8.846,8.846,0,1,0,8.846-8.846,8.846,8.846,0,0,0-8.846,8.846" transform="translate(-7.549 -2.238)"/><path class="w" d="M23.3,16.051a8.846,8.846,0,1,0,8.846-8.846A8.847,8.847,0,0,0,23.3,16.051" transform="translate(-7.617 -2.356)"/><path class="x" d="M23.5,16.412A8.846,8.846,0,1,0,32.35,7.566,8.847,8.847,0,0,0,23.5,16.412" transform="translate(-7.685 -2.474)"/><path class="y" d="M23.712,16.772a8.846,8.846,0,1,0,8.846-8.847,8.847,8.847,0,0,0-8.846,8.847" transform="translate(-7.753 -2.591)"/><path class="z" d="M23.92,17.132a8.846,8.846,0,1,0,8.846-8.847,8.847,8.847,0,0,0-8.846,8.847" transform="translate(-7.821 -2.709)"/><path class="aa" d="M24.128,17.493a8.846,8.846,0,1,0,8.846-8.847,8.847,8.847,0,0,0-8.846,8.847" transform="translate(-7.889 -2.827)"/><path class="ab" d="M24.336,17.853a8.846,8.846,0,1,0,8.846-8.847,8.847,8.847,0,0,0-8.846,8.847" transform="translate(-7.957 -2.945)"/><path class="ac" d="M24.544,18.212A8.846,8.846,0,1,0,33.39,9.366a8.847,8.847,0,0,0-8.846,8.846" transform="translate(-8.025 -3.062)"/><path class="ad" d="M24.752,18.573A8.846,8.846,0,1,0,33.6,9.727a8.847,8.847,0,0,0-8.846,8.846" transform="translate(-8.093 -3.18)"/><path class="ae" d="M24.96,18.933a8.846,8.846,0,1,0,8.846-8.846,8.847,8.847,0,0,0-8.846,8.846" transform="translate(-8.161 -3.298)"/><path class="af" d="M25.168,19.293a8.846,8.846,0,1,0,8.846-8.846,8.846,8.846,0,0,0-8.846,8.846" transform="translate(-8.229 -3.416)"/><path class="ag" d="M25.376,19.654a8.846,8.846,0,1,0,8.846-8.846,8.847,8.847,0,0,0-8.846,8.846" transform="translate(-8.297 -3.534)"/><path class="ah" d="M25.584,20.014a8.846,8.846,0,1,0,8.846-8.846,8.847,8.847,0,0,0-8.846,8.846" transform="translate(-8.365 -3.652)"/><path class="ai" d="M25.792,20.374a8.846,8.846,0,1,0,8.846-8.846,8.847,8.847,0,0,0-8.846,8.846" transform="translate(-8.433 -3.769)"/><path class="aj" d="M26,20.735a8.846,8.846,0,1,0,8.846-8.847A8.847,8.847,0,0,0,26,20.735" transform="translate(-8.501 -3.887)"/><path class="ak" d="M26.208,21.1a8.846,8.846,0,1,0,8.846-8.847A8.847,8.847,0,0,0,26.208,21.1" transform="translate(-8.569 -4.005)"/><path class="al" d="M26.416,21.455a8.846,8.846,0,1,0,8.846-8.847,8.847,8.847,0,0,0-8.846,8.847" transform="translate(-8.637 -4.122)"/><path class="am" d="M26.624,21.816a8.846,8.846,0,1,0,8.846-8.847,8.847,8.847,0,0,0-8.846,8.847" transform="translate(-8.705 -4.24)"/><path class="an" d="M26.832,22.175a8.846,8.846,0,1,0,8.846-8.846,8.847,8.847,0,0,0-8.846,8.846" transform="translate(-8.773 -4.358)"/><path class="ao" d="M27.04,22.536a8.846,8.846,0,1,0,8.846-8.846,8.847,8.847,0,0,0-8.846,8.846" transform="translate(-8.841 -4.476)"/><path class="ap" d="M27.248,22.9a8.846,8.846,0,1,0,8.846-8.846A8.847,8.847,0,0,0,27.248,22.9" transform="translate(-8.909 -4.594)"/><path class="aq" d="M27.456,23.256A8.846,8.846,0,1,0,36.3,14.41a8.846,8.846,0,0,0-8.846,8.846" transform="translate(-8.977 -4.712)"/><path class="ar" d="M27.664,23.617a8.846,8.846,0,1,0,8.846-8.846,8.846,8.846,0,0,0-8.846,8.846" transform="translate(-9.045 -4.83)"/><path class="as" d="M27.872,23.977a8.846,8.846,0,1,0,8.846-8.846,8.847,8.847,0,0,0-8.846,8.846" transform="translate(-9.113 -4.947)"/><path class="at" d="M28.08,24.337a8.846,8.846,0,1,0,8.846-8.846,8.847,8.847,0,0,0-8.846,8.846" transform="translate(-9.181 -5.065)"/><path class="au" d="M28.288,24.7a8.846,8.846,0,1,0,8.846-8.846A8.847,8.847,0,0,0,28.288,24.7" transform="translate(-9.249 -5.183)"/><path class="av" d="M28.5,25.058a8.846,8.846,0,1,0,8.846-8.847A8.847,8.847,0,0,0,28.5,25.058" transform="translate(-9.317 -5.3)"/><path class="aw" d="M28.7,25.418a8.846,8.846,0,1,0,8.846-8.847A8.847,8.847,0,0,0,28.7,25.418" transform="translate(-9.385 -5.418)"/><path class="ax" d="M28.912,25.779a8.846,8.846,0,1,0,8.846-8.847,8.847,8.847,0,0,0-8.846,8.847" transform="translate(-9.453 -5.536)"/><path class="ay" d="M29.12,26.139a8.846,8.846,0,1,0,8.846-8.847,8.847,8.847,0,0,0-8.846,8.847" transform="translate(-9.521 -5.654)"/><path class="az" d="M29.328,26.5a8.846,8.846,0,1,0,8.846-8.846A8.847,8.847,0,0,0,29.328,26.5" transform="translate(-9.589 -5.772)"/><path class="ba" d="M29.536,26.859a8.846,8.846,0,1,0,8.846-8.846,8.847,8.847,0,0,0-8.846,8.846" transform="translate(-9.657 -5.89)"/><path class="bb" d="M29.744,27.219a8.846,8.846,0,1,0,8.846-8.846,8.846,8.846,0,0,0-8.846,8.846" transform="translate(-9.725 -6.007)"/><path class="bc" d="M29.952,27.58A8.846,8.846,0,1,0,38.8,18.734a8.846,8.846,0,0,0-8.846,8.846" transform="translate(-9.793 -6.125)"/><path class="bd" d="M30.16,27.94a8.846,8.846,0,1,0,8.846-8.846A8.847,8.847,0,0,0,30.16,27.94" transform="translate(-9.861 -6.243)"/><path class="be" d="M30.368,28.3a8.846,8.846,0,1,0,8.846-8.846A8.847,8.847,0,0,0,30.368,28.3" transform="translate(-9.929 -6.361)"/><path class="bf" d="M30.576,28.661a8.846,8.846,0,1,0,8.846-8.846,8.847,8.847,0,0,0-8.846,8.846" transform="translate(-9.997 -6.479)"/><path class="bg" d="M30.784,29.021a8.846,8.846,0,1,0,8.846-8.847,8.847,8.847,0,0,0-8.846,8.847" transform="translate(-10.065 -6.596)"/><path class="bh" d="M30.992,29.381a8.846,8.846,0,1,0,8.846-8.847,8.847,8.847,0,0,0-8.846,8.847" transform="translate(-10.133 -6.714)"/><path class="bi" d="M31.2,29.742A8.846,8.846,0,1,0,40.046,20.9,8.847,8.847,0,0,0,31.2,29.742" transform="translate(-10.201 -6.832)"/><path class="bj" d="M31.408,30.1a8.846,8.846,0,1,0,8.846-8.847A8.847,8.847,0,0,0,31.408,30.1" transform="translate(-10.269 -6.95)"/><path class="bk" d="M31.616,30.461a8.846,8.846,0,1,0,8.846-8.846,8.847,8.847,0,0,0-8.846,8.846" transform="translate(-10.337 -7.067)"/><path class="bl" d="M31.824,30.822a8.846,8.846,0,1,0,8.846-8.846,8.847,8.847,0,0,0-8.846,8.846" transform="translate(-10.405 -7.185)"/><path class="bm" d="M32.032,31.182a8.846,8.846,0,1,0,8.846-8.846,8.847,8.847,0,0,0-8.846,8.846" transform="translate(-10.473 -7.303)"/><path class="bn" d="M32.24,31.542A8.846,8.846,0,1,0,41.086,22.7a8.846,8.846,0,0,0-8.846,8.846" transform="translate(-10.541 -7.421)"/><path class="bo" d="M32.448,31.9a8.846,8.846,0,1,0,8.846-8.846A8.847,8.847,0,0,0,32.448,31.9" transform="translate(-10.609 -7.539)"/><path class="bp" d="M32.656,32.263A8.846,8.846,0,1,0,41.5,23.417a8.847,8.847,0,0,0-8.846,8.846" transform="translate(-10.677 -7.657)"/><path class="bq" d="M32.864,32.623a8.846,8.846,0,1,0,8.846-8.846,8.847,8.847,0,0,0-8.846,8.846" transform="translate(-10.745 -7.774)"/><path class="br" d="M33.072,32.984a8.846,8.846,0,1,0,8.846-8.846,8.847,8.847,0,0,0-8.846,8.846" transform="translate(-10.813 -7.892)"/><path class="bs" d="M33.28,33.344A8.846,8.846,0,1,0,42.126,24.5a8.847,8.847,0,0,0-8.846,8.847" transform="translate(-10.881 -8.01)"/><path class="bt" d="M33.488,33.7a8.846,8.846,0,1,0,8.846-8.847A8.847,8.847,0,0,0,33.488,33.7" transform="translate(-10.949 -8.127)"/><path class="bu" d="M33.7,34.065a8.846,8.846,0,1,0,8.846-8.847A8.847,8.847,0,0,0,33.7,34.065" transform="translate(-11.017 -8.245)"/><path class="bv" d="M33.9,34.424a8.846,8.846,0,1,0,8.846-8.846A8.847,8.847,0,0,0,33.9,34.424" transform="translate(-11.085 -8.363)"/><path class="bw" d="M34.112,34.785a8.846,8.846,0,1,0,8.846-8.846,8.847,8.847,0,0,0-8.846,8.846" transform="translate(-11.153 -8.481)"/><path class="bx" d="M34.32,35.145A8.846,8.846,0,1,0,43.166,26.3a8.847,8.847,0,0,0-8.846,8.846" transform="translate(-11.221 -8.599)"/><path class="by" d="M34.528,35.505a8.846,8.846,0,1,0,8.846-8.846,8.846,8.846,0,0,0-8.846,8.846" transform="translate(-11.289 -8.717)"/><path class="bz" d="M34.736,35.866a8.846,8.846,0,1,0,8.846-8.846,8.846,8.846,0,0,0-8.846,8.846" transform="translate(-11.357 -8.835)"/><path class="ca" d="M34.944,36.226A8.846,8.846,0,1,0,43.79,27.38a8.846,8.846,0,0,0-8.846,8.846" transform="translate(-11.425 -8.952)"/><path class="cb" d="M35.152,36.586A8.846,8.846,0,1,0,44,27.74a8.846,8.846,0,0,0-8.846,8.846" transform="translate(-11.493 -9.07)"/><path class="cc" d="M35.36,36.947A8.846,8.846,0,1,0,44.206,28.1a8.846,8.846,0,0,0-8.846,8.846" transform="translate(-11.561 -9.188)"/><path class="cd" d="M35.568,37.307a8.846,8.846,0,1,0,8.846-8.847,8.846,8.846,0,0,0-8.846,8.847" transform="translate(-11.629 -9.305)"/><path class="ce" d="M35.776,37.667a8.846,8.846,0,1,0,8.846-8.847,8.846,8.846,0,0,0-8.846,8.847" transform="translate(-11.697 -9.423)"/><path class="cf" d="M35.984,38.028a8.846,8.846,0,1,0,8.846-8.847,8.846,8.846,0,0,0-8.846,8.847" transform="translate(-11.765 -9.541)"/><path class="cg" d="M36.192,38.387a8.846,8.846,0,1,0,8.846-8.846,8.846,8.846,0,0,0-8.846,8.846" transform="translate(-11.833 -9.659)"/><path class="ch" d="M36.4,38.747A8.846,8.846,0,1,0,45.246,29.9,8.847,8.847,0,0,0,36.4,38.747" transform="translate(-11.901 -9.777)"/><path class="ci" d="M36.608,39.108a8.846,8.846,0,1,0,8.846-8.846,8.847,8.847,0,0,0-8.846,8.846" transform="translate(-11.969 -9.895)"/><path class="cj" d="M36.816,39.468a8.846,8.846,0,1,0,8.846-8.846,8.847,8.847,0,0,0-8.846,8.846" transform="translate(-12.037 -10.012)"/><path class="ck" d="M37.024,39.828a8.846,8.846,0,1,0,8.846-8.846,8.847,8.847,0,0,0-8.846,8.846" transform="translate(-12.105 -10.13)"/><path class="cl" d="M37.232,40.189a8.846,8.846,0,1,0,8.846-8.846,8.847,8.847,0,0,0-8.846,8.846" transform="translate(-12.173 -10.248)"/><path class="cm" d="M37.44,40.549A8.846,8.846,0,1,0,46.286,31.7a8.847,8.847,0,0,0-8.846,8.846" transform="translate(-12.241 -10.366)"/><path class="cn" d="M37.648,40.91a8.846,8.846,0,1,0,8.846-8.846,8.847,8.847,0,0,0-8.846,8.846" transform="translate(-12.309 -10.484)"/><path class="co" d="M37.856,41.27A8.846,8.846,0,1,0,46.7,32.424a8.847,8.847,0,0,0-8.846,8.846" transform="translate(-12.377 -10.601)"/><path class="cp" d="M38.064,41.63a8.846,8.846,0,1,0,8.846-8.847,8.847,8.847,0,0,0-8.846,8.847" transform="translate(-12.445 -10.719)"/><path class="cq" d="M38.272,41.991a8.846,8.846,0,1,0,8.846-8.847,8.847,8.847,0,0,0-8.846,8.847" transform="translate(-12.513 -10.837)"/><path class="cr" d="M36.829,8.846A8.846,8.846,0,1,1,27.982,0a8.847,8.847,0,0,1,8.846,8.847" transform="translate(-6.257 0)"/><path class="cs" d="M36.621,9.206A8.846,8.846,0,1,1,27.774.359a8.846,8.846,0,0,1,8.846,8.847" transform="translate(-6.189 -0.117)"/><path class="ct" d="M36.413,9.567A8.846,8.846,0,1,1,27.566.72a8.847,8.847,0,0,1,8.846,8.847" transform="translate(-6.121 -0.235)"/><path class="cu" d="M36.2,9.927A8.846,8.846,0,1,1,27.358,1.08,8.847,8.847,0,0,1,36.2,9.927" transform="translate(-6.053 -0.353)"/><path class="cv" d="M36,10.287A8.846,8.846,0,1,1,27.15,1.441,8.846,8.846,0,0,1,36,10.287" transform="translate(-5.985 -0.471)"/><path class="cw" d="M35.788,10.647A8.846,8.846,0,1,1,26.941,1.8a8.847,8.847,0,0,1,8.846,8.846" transform="translate(-5.916 -0.589)"/><path class="cx" d="M35.58,11.007a8.846,8.846,0,1,1-8.846-8.846,8.847,8.847,0,0,1,8.846,8.846" transform="translate(-5.848 -0.707)"/><path class="cy" d="M35.372,11.368a8.846,8.846,0,1,1-8.846-8.846,8.846,8.846,0,0,1,8.846,8.846" transform="translate(-5.78 -0.825)"/><path class="cz" d="M35.164,11.728a8.846,8.846,0,1,1-8.846-8.846,8.847,8.847,0,0,1,8.846,8.846" transform="translate(-5.712 -0.942)"/><path class="da" d="M34.956,12.088a8.846,8.846,0,1,1-8.846-8.846,8.846,8.846,0,0,1,8.846,8.846" transform="translate(-5.644 -1.06)"/><path class="db" d="M34.748,12.449A8.846,8.846,0,1,1,25.9,3.6a8.846,8.846,0,0,1,8.846,8.846" transform="translate(-5.576 -1.178)"/><path class="dc" d="M34.541,12.809a8.846,8.846,0,1,1-8.846-8.847,8.847,8.847,0,0,1,8.846,8.847" transform="translate(-5.509 -1.295)"/><path class="dd" d="M34.333,13.169a8.846,8.846,0,1,1-8.846-8.847,8.847,8.847,0,0,1,8.846,8.847" transform="translate(-5.441 -1.413)"/><path class="de" d="M34.125,13.53a8.846,8.846,0,1,1-8.846-8.847,8.847,8.847,0,0,1,8.846,8.847" transform="translate(-5.373 -1.531)"/><path class="df" d="M33.917,13.89A8.846,8.846,0,1,1,25.07,5.043a8.847,8.847,0,0,1,8.846,8.847" transform="translate(-5.305 -1.649)"/><path class="dg" d="M33.709,14.249A8.846,8.846,0,1,1,24.862,5.4a8.847,8.847,0,0,1,8.846,8.846" transform="translate(-5.237 -1.767)"/><path class="dh" d="M33.5,14.61a8.846,8.846,0,1,1-8.847-8.846A8.847,8.847,0,0,1,33.5,14.61" transform="translate(-5.169 -1.885)"/><path class="di" d="M33.293,14.97a8.846,8.846,0,1,1-8.847-8.846,8.847,8.847,0,0,1,8.847,8.846" transform="translate(-5.101 -2.002)"/><path class="dj" d="M33.085,15.331a8.846,8.846,0,1,1-8.846-8.846,8.846,8.846,0,0,1,8.846,8.846" transform="translate(-5.033 -2.12)"/><path class="dk" d="M32.877,15.691A8.846,8.846,0,1,1,24.03,6.845a8.847,8.847,0,0,1,8.846,8.846" transform="translate(-4.965 -2.238)"/><path class="dl" d="M32.669,16.051a8.846,8.846,0,1,1-8.846-8.846,8.847,8.847,0,0,1,8.846,8.846" transform="translate(-4.897 -2.356)"/><path class="dm" d="M32.461,16.412a8.846,8.846,0,1,1-8.846-8.846,8.847,8.847,0,0,1,8.846,8.846" transform="translate(-4.829 -2.474)"/><path class="dn" d="M32.253,16.772a8.846,8.846,0,1,1-8.846-8.847,8.847,8.847,0,0,1,8.846,8.847" transform="translate(-4.761 -2.591)"/><path class="do" d="M32.045,17.132A8.846,8.846,0,1,1,23.2,8.285a8.847,8.847,0,0,1,8.846,8.847" transform="translate(-4.693 -2.709)"/><path class="dp" d="M31.837,17.493A8.846,8.846,0,1,1,22.99,8.646a8.847,8.847,0,0,1,8.846,8.847" transform="translate(-4.625 -2.827)"/><path class="dq" d="M31.629,17.853a8.846,8.846,0,1,1-8.846-8.847,8.847,8.847,0,0,1,8.846,8.847" transform="translate(-4.557 -2.945)"/><path class="dr" d="M31.421,18.212a8.846,8.846,0,1,1-8.846-8.846,8.847,8.847,0,0,1,8.846,8.846" transform="translate(-4.489 -3.062)"/><path class="ds" d="M31.213,18.573a8.846,8.846,0,1,1-8.846-8.846,8.847,8.847,0,0,1,8.846,8.846" transform="translate(-4.421 -3.18)"/><path class="dt" d="M31,18.933a8.846,8.846,0,1,1-8.846-8.846A8.847,8.847,0,0,1,31,18.933" transform="translate(-4.353 -3.298)"/><path class="du" d="M30.8,19.293a8.846,8.846,0,1,1-8.846-8.846A8.846,8.846,0,0,1,30.8,19.293" transform="translate(-4.285 -3.416)"/><path class="dv" d="M30.589,19.654a8.846,8.846,0,1,1-8.846-8.846,8.847,8.847,0,0,1,8.846,8.846" transform="translate(-4.217 -3.534)"/><path class="dw" d="M30.381,20.014a8.846,8.846,0,1,1-8.846-8.846,8.847,8.847,0,0,1,8.846,8.846" transform="translate(-4.148 -3.652)"/><path class="dx" d="M30.173,20.374a8.846,8.846,0,1,1-8.846-8.846,8.847,8.847,0,0,1,8.846,8.846" transform="translate(-4.08 -3.769)"/><path class="dy" d="M29.965,20.735a8.846,8.846,0,1,1-8.846-8.847,8.847,8.847,0,0,1,8.846,8.847" transform="translate(-4.012 -3.887)"/><path class="dz" d="M29.757,21.1a8.846,8.846,0,1,1-8.846-8.847A8.847,8.847,0,0,1,29.757,21.1" transform="translate(-3.944 -4.005)"/><path class="ea" d="M29.549,21.455A8.846,8.846,0,1,1,20.7,12.608a8.847,8.847,0,0,1,8.846,8.847" transform="translate(-3.876 -4.122)"/><path class="eb" d="M29.341,21.816a8.846,8.846,0,1,1-8.846-8.847,8.847,8.847,0,0,1,8.846,8.847" transform="translate(-3.808 -4.24)"/><path class="ec" d="M29.133,22.175a8.846,8.846,0,1,1-8.846-8.846,8.847,8.847,0,0,1,8.846,8.846" transform="translate(-3.74 -4.358)"/><path class="ed" d="M28.925,22.536a8.846,8.846,0,1,1-8.846-8.846,8.847,8.847,0,0,1,8.846,8.846" transform="translate(-3.672 -4.476)"/><path class="ee" d="M28.717,22.9A8.846,8.846,0,1,1,19.87,14.05,8.847,8.847,0,0,1,28.717,22.9" transform="translate(-3.604 -4.594)"/><path class="ef" d="M28.509,23.256a8.846,8.846,0,1,1-8.846-8.846,8.846,8.846,0,0,1,8.846,8.846" transform="translate(-3.536 -4.712)"/><path class="eg" d="M28.3,23.617a8.846,8.846,0,1,1-8.846-8.846A8.846,8.846,0,0,1,28.3,23.617" transform="translate(-3.468 -4.83)"/><path class="eh" d="M28.093,23.977a8.846,8.846,0,1,1-8.846-8.846,8.847,8.847,0,0,1,8.846,8.846" transform="translate(-3.4 -4.947)"/><path class="ei" d="M27.885,24.337a8.846,8.846,0,1,1-8.846-8.846,8.847,8.847,0,0,1,8.846,8.846" transform="translate(-3.332 -5.065)"/><path class="ej" d="M27.677,24.7a8.846,8.846,0,1,1-8.846-8.846A8.847,8.847,0,0,1,27.677,24.7" transform="translate(-3.264 -5.183)"/><path class="ek" d="M27.469,25.058a8.846,8.846,0,1,1-8.846-8.847,8.847,8.847,0,0,1,8.846,8.847" transform="translate(-3.196 -5.3)"/><path class="el" d="M27.261,25.418a8.846,8.846,0,1,1-8.846-8.847,8.847,8.847,0,0,1,8.846,8.847" transform="translate(-3.128 -5.418)"/><path class="em" d="M27.053,25.779a8.846,8.846,0,1,1-8.846-8.847,8.847,8.847,0,0,1,8.846,8.847" transform="translate(-3.06 -5.536)"/><path class="en" d="M26.845,26.139A8.846,8.846,0,1,1,18,17.292a8.847,8.847,0,0,1,8.846,8.847" transform="translate(-2.992 -5.654)"/><path class="eo" d="M26.637,26.5a8.846,8.846,0,1,1-8.846-8.846A8.847,8.847,0,0,1,26.637,26.5" transform="translate(-2.924 -5.772)"/><path class="ep" d="M26.429,26.859a8.846,8.846,0,1,1-8.846-8.846,8.847,8.847,0,0,1,8.846,8.846" transform="translate(-2.856 -5.89)"/><path class="eq" d="M26.221,27.219a8.846,8.846,0,1,1-8.846-8.846,8.846,8.846,0,0,1,8.846,8.846" transform="translate(-2.788 -6.007)"/><path class="er" d="M26.013,27.58a8.846,8.846,0,1,1-8.846-8.846,8.846,8.846,0,0,1,8.846,8.846" transform="translate(-2.72 -6.125)"/><path class="es" d="M25.8,27.94a8.846,8.846,0,1,1-8.846-8.846A8.847,8.847,0,0,1,25.8,27.94" transform="translate(-2.652 -6.243)"/><path class="et" d="M25.6,28.3a8.846,8.846,0,1,1-8.846-8.846A8.847,8.847,0,0,1,25.6,28.3" transform="translate(-2.584 -6.361)"/><path class="eu" d="M25.389,28.661a8.846,8.846,0,1,1-8.846-8.846,8.847,8.847,0,0,1,8.846,8.846" transform="translate(-2.516 -6.479)"/><path class="ev" d="M25.181,29.021a8.846,8.846,0,1,1-8.846-8.847,8.847,8.847,0,0,1,8.846,8.847" transform="translate(-2.448 -6.596)"/><path class="ew" d="M24.973,29.381a8.846,8.846,0,1,1-8.846-8.847,8.847,8.847,0,0,1,8.846,8.847" transform="translate(-2.38 -6.714)"/><path class="ex" d="M24.765,29.742A8.846,8.846,0,1,1,15.918,20.9a8.847,8.847,0,0,1,8.846,8.847" transform="translate(-2.312 -6.832)"/><path class="ey" d="M24.557,30.1a8.846,8.846,0,1,1-8.846-8.847A8.847,8.847,0,0,1,24.557,30.1" transform="translate(-2.244 -6.95)"/><path class="ez" d="M24.349,30.461A8.846,8.846,0,1,1,15.5,21.615a8.847,8.847,0,0,1,8.846,8.846" transform="translate(-2.176 -7.067)"/><path class="fa" d="M24.141,30.822a8.846,8.846,0,1,1-8.846-8.846,8.847,8.847,0,0,1,8.846,8.846" transform="translate(-2.108 -7.185)"/><path class="fb" d="M23.933,31.182a8.846,8.846,0,1,1-8.846-8.846,8.847,8.847,0,0,1,8.846,8.846" transform="translate(-2.04 -7.303)"/><path class="fc" d="M23.725,31.542A8.846,8.846,0,1,1,14.878,22.7a8.846,8.846,0,0,1,8.846,8.846" transform="translate(-1.972 -7.421)"/><path class="fd" d="M23.517,31.9a8.846,8.846,0,1,1-8.846-8.846A8.847,8.847,0,0,1,23.517,31.9" transform="translate(-1.904 -7.539)"/><path class="fe" d="M23.309,32.263a8.846,8.846,0,1,1-8.846-8.846,8.847,8.847,0,0,1,8.846,8.846" transform="translate(-1.836 -7.657)"/><path class="ff" d="M23.1,32.623a8.846,8.846,0,1,1-8.846-8.846A8.847,8.847,0,0,1,23.1,32.623" transform="translate(-1.768 -7.774)"/><path class="fg" d="M22.892,32.984a8.846,8.846,0,1,1-8.846-8.846,8.847,8.847,0,0,1,8.846,8.846" transform="translate(-1.7 -7.892)"/><path class="fh" d="M22.684,33.344A8.846,8.846,0,1,1,13.837,24.5a8.847,8.847,0,0,1,8.846,8.847" transform="translate(-1.632 -8.01)"/><path class="fi" d="M22.477,33.7a8.846,8.846,0,1,1-8.847-8.847A8.847,8.847,0,0,1,22.477,33.7" transform="translate(-1.564 -8.127)"/><path class="fj" d="M22.269,34.065a8.846,8.846,0,1,1-8.847-8.847,8.847,8.847,0,0,1,8.847,8.847" transform="translate(-1.496 -8.245)"/><path class="fk" d="M22.061,34.424a8.846,8.846,0,1,1-8.847-8.846,8.847,8.847,0,0,1,8.847,8.846" transform="translate(-1.428 -8.363)"/><path class="fl" d="M21.853,34.785a8.846,8.846,0,1,1-8.847-8.846,8.847,8.847,0,0,1,8.847,8.846" transform="translate(-1.36 -8.481)"/><path class="fm" d="M21.645,35.145A8.847,8.847,0,1,1,12.8,26.3a8.847,8.847,0,0,1,8.847,8.846" transform="translate(-1.292 -8.599)"/><path class="fn" d="M21.436,35.505a8.846,8.846,0,1,1-8.846-8.846,8.846,8.846,0,0,1,8.846,8.846" transform="translate(-1.224 -8.717)"/><path class="fo" d="M21.228,35.866a8.846,8.846,0,1,1-8.846-8.846,8.846,8.846,0,0,1,8.846,8.846" transform="translate(-1.156 -8.835)"/><path class="fp" d="M21.02,36.226a8.846,8.846,0,1,1-8.846-8.846,8.846,8.846,0,0,1,8.846,8.846" transform="translate(-1.088 -8.952)"/><path class="fq" d="M20.812,36.586a8.846,8.846,0,1,1-8.846-8.846,8.846,8.846,0,0,1,8.846,8.846" transform="translate(-1.02 -9.07)"/><path class="fr" d="M20.6,36.947A8.846,8.846,0,1,1,11.757,28.1,8.846,8.846,0,0,1,20.6,36.947" transform="translate(-0.952 -9.188)"/><path class="fs" d="M20.4,37.307A8.846,8.846,0,1,1,11.55,28.46,8.846,8.846,0,0,1,20.4,37.307" transform="translate(-0.884 -9.305)"/><path class="ft" d="M20.189,37.667a8.846,8.846,0,1,1-8.846-8.847,8.847,8.847,0,0,1,8.846,8.847" transform="translate(-0.816 -9.423)"/><path class="fu" d="M19.981,38.028a8.846,8.846,0,1,1-8.846-8.847,8.847,8.847,0,0,1,8.846,8.847" transform="translate(-0.748 -9.541)"/><path class="fv" d="M19.773,38.387a8.846,8.846,0,1,1-8.846-8.846,8.847,8.847,0,0,1,8.846,8.846" transform="translate(-0.68 -9.659)"/><path class="fw" d="M19.565,38.747A8.846,8.846,0,1,1,10.718,29.9a8.847,8.847,0,0,1,8.846,8.846" transform="translate(-0.612 -9.777)"/><path class="fx" d="M19.357,39.108a8.846,8.846,0,1,1-8.846-8.846,8.847,8.847,0,0,1,8.846,8.846" transform="translate(-0.544 -9.895)"/><path class="fy" d="M19.149,39.468A8.846,8.846,0,1,1,10.3,30.622a8.847,8.847,0,0,1,8.846,8.846" transform="translate(-0.476 -10.012)"/><path class="fz" d="M18.941,39.828a8.846,8.846,0,1,1-8.846-8.846,8.847,8.847,0,0,1,8.846,8.846" transform="translate(-0.408 -10.13)"/><path class="ga" d="M18.733,40.189a8.846,8.846,0,1,1-8.846-8.846,8.847,8.847,0,0,1,8.846,8.846" transform="translate(-0.34 -10.248)"/><path class="gb" d="M18.525,40.549A8.846,8.846,0,1,1,9.678,31.7a8.847,8.847,0,0,1,8.846,8.846" transform="translate(-0.272 -10.366)"/><path class="gc" d="M18.317,40.91A8.846,8.846,0,1,1,9.47,32.064a8.847,8.847,0,0,1,8.846,8.846" transform="translate(-0.204 -10.484)"/><path class="gd" d="M18.109,41.27a8.846,8.846,0,1,1-8.846-8.846,8.847,8.847,0,0,1,8.846,8.846" transform="translate(-0.136 -10.601)"/><path class="ge" d="M17.9,41.63a8.846,8.846,0,1,1-8.846-8.847A8.847,8.847,0,0,1,17.9,41.63" transform="translate(-0.068 -10.719)"/><path class="gf" d="M17.693,41.991a8.846,8.846,0,1,1-8.846-8.847,8.847,8.847,0,0,1,8.846,8.847" transform="translate(0 -10.837)"/><path class="cq" d="M55.965,41.991a8.846,8.846,0,1,1-8.846-8.847,8.847,8.847,0,0,1,8.846,8.847" transform="translate(-12.513 -10.837)"/><path class="gg" d="M55.549,41.991A8.846,8.846,0,1,1,46.7,33.144a8.847,8.847,0,0,1,8.846,8.847" transform="translate(-12.377 -10.837)"/><path class="gh" d="M55.133,41.991a8.846,8.846,0,1,1-8.846-8.847,8.847,8.847,0,0,1,8.846,8.847" transform="translate(-12.241 -10.837)"/><path class="gi" d="M54.717,41.991a8.846,8.846,0,1,1-8.846-8.847,8.847,8.847,0,0,1,8.846,8.847" transform="translate(-12.105 -10.837)"/><path class="gj" d="M54.3,41.991a8.846,8.846,0,1,1-8.846-8.847A8.847,8.847,0,0,1,54.3,41.991" transform="translate(-11.969 -10.837)"/><path class="gk" d="M53.885,41.991a8.846,8.846,0,1,1-8.846-8.847,8.847,8.847,0,0,1,8.846,8.847" transform="translate(-11.833 -10.837)"/><path class="gl" d="M53.469,41.991a8.846,8.846,0,1,1-8.846-8.847,8.847,8.847,0,0,1,8.846,8.847" transform="translate(-11.697 -10.837)"/><path class="gm" d="M53.053,41.991a8.846,8.846,0,1,1-8.846-8.847,8.847,8.847,0,0,1,8.846,8.847" transform="translate(-11.561 -10.837)"/><path class="gn" d="M52.637,41.991a8.846,8.846,0,1,1-8.846-8.847,8.847,8.847,0,0,1,8.846,8.847" transform="translate(-11.425 -10.837)"/><path class="go" d="M52.221,41.991a8.846,8.846,0,1,1-8.846-8.847,8.847,8.847,0,0,1,8.846,8.847" transform="translate(-11.289 -10.837)"/><path class="gp" d="M51.8,41.991a8.846,8.846,0,1,1-8.846-8.847A8.847,8.847,0,0,1,51.8,41.991" transform="translate(-11.153 -10.837)"/><path class="gq" d="M51.389,41.991a8.846,8.846,0,1,1-8.846-8.847,8.847,8.847,0,0,1,8.846,8.847" transform="translate(-11.017 -10.837)"/><path class="gr" d="M50.973,41.991a8.846,8.846,0,1,1-8.846-8.847,8.847,8.847,0,0,1,8.846,8.847" transform="translate(-10.881 -10.837)"/><path class="gs" d="M50.557,41.991a8.846,8.846,0,1,1-8.846-8.847,8.847,8.847,0,0,1,8.846,8.847" transform="translate(-10.745 -10.837)"/><path class="gt" d="M50.141,41.991a8.846,8.846,0,1,1-8.846-8.847,8.847,8.847,0,0,1,8.846,8.847" transform="translate(-10.609 -10.837)"/><path class="gu" d="M49.725,41.991a8.846,8.846,0,1,1-8.846-8.847,8.847,8.847,0,0,1,8.846,8.847" transform="translate(-10.473 -10.837)"/><path class="gv" d="M49.309,41.991a8.846,8.846,0,1,1-8.846-8.847,8.847,8.847,0,0,1,8.846,8.847" transform="translate(-10.337 -10.837)"/><path class="gw" d="M48.892,41.991a8.846,8.846,0,1,1-8.846-8.847,8.847,8.847,0,0,1,8.846,8.847" transform="translate(-10.201 -10.837)"/><path class="gx" d="M48.476,41.991a8.846,8.846,0,1,1-8.846-8.847,8.847,8.847,0,0,1,8.846,8.847" transform="translate(-10.065 -10.837)"/><path class="gy" d="M48.06,41.991a8.846,8.846,0,1,1-8.846-8.847,8.847,8.847,0,0,1,8.846,8.847" transform="translate(-9.929 -10.837)"/><path class="gz" d="M47.644,41.991A8.846,8.846,0,1,1,38.8,33.144a8.847,8.847,0,0,1,8.846,8.847" transform="translate(-9.793 -10.837)"/><path class="ha" d="M47.229,41.991a8.846,8.846,0,1,1-8.846-8.847,8.847,8.847,0,0,1,8.846,8.847" transform="translate(-9.657 -10.837)"/><path class="hb" d="M46.813,41.991a8.846,8.846,0,1,1-8.846-8.847,8.847,8.847,0,0,1,8.846,8.847" transform="translate(-9.521 -10.837)"/><path class="hc" d="M46.4,41.991a8.846,8.846,0,1,1-8.847-8.847A8.847,8.847,0,0,1,46.4,41.991" transform="translate(-9.385 -10.837)"/><path class="hd" d="M45.98,41.991a8.846,8.846,0,1,1-8.846-8.847,8.847,8.847,0,0,1,8.846,8.847" transform="translate(-9.249 -10.837)"/><path class="he" d="M45.564,41.991a8.846,8.846,0,1,1-8.846-8.847,8.847,8.847,0,0,1,8.846,8.847" transform="translate(-9.113 -10.837)"/><path class="hf" d="M45.148,41.991A8.846,8.846,0,1,1,36.3,33.144a8.846,8.846,0,0,1,8.846,8.847" transform="translate(-8.977 -10.837)"/><path class="hg" d="M44.732,41.991a8.846,8.846,0,1,1-8.846-8.847,8.846,8.846,0,0,1,8.846,8.847" transform="translate(-8.841 -10.837)"/><path class="hh" d="M44.316,41.991a8.846,8.846,0,1,1-8.846-8.847,8.846,8.846,0,0,1,8.846,8.847" transform="translate(-8.705 -10.837)"/><path class="hi" d="M43.9,41.991a8.846,8.846,0,1,1-8.846-8.847A8.846,8.846,0,0,1,43.9,41.991" transform="translate(-8.569 -10.837)"/><path class="hj" d="M43.485,41.991a8.846,8.846,0,1,1-8.846-8.847,8.847,8.847,0,0,1,8.846,8.847" transform="translate(-8.433 -10.837)"/><path class="hk" d="M43.069,41.991a8.846,8.846,0,1,1-8.846-8.847,8.847,8.847,0,0,1,8.846,8.847" transform="translate(-8.297 -10.837)"/><path class="hl" d="M42.653,41.991a8.846,8.846,0,1,1-8.846-8.847,8.847,8.847,0,0,1,8.846,8.847" transform="translate(-8.161 -10.837)"/><path class="hm" d="M42.237,41.991a8.846,8.846,0,1,1-8.846-8.847,8.847,8.847,0,0,1,8.846,8.847" transform="translate(-8.025 -10.837)"/><path class="hn" d="M41.821,41.991a8.846,8.846,0,1,1-8.846-8.847,8.847,8.847,0,0,1,8.846,8.847" transform="translate(-7.889 -10.837)"/><path class="ho" d="M41.4,41.991a8.846,8.846,0,1,1-8.846-8.847A8.847,8.847,0,0,1,41.4,41.991" transform="translate(-7.753 -10.837)"/><path class="hp" d="M40.989,41.991a8.846,8.846,0,1,1-8.846-8.847,8.847,8.847,0,0,1,8.846,8.847" transform="translate(-7.617 -10.837)"/><path class="hq" d="M40.573,41.991a8.846,8.846,0,1,1-8.846-8.847,8.847,8.847,0,0,1,8.846,8.847" transform="translate(-7.481 -10.837)"/><path class="hr" d="M40.157,41.991a8.846,8.846,0,1,1-8.846-8.847,8.847,8.847,0,0,1,8.846,8.847" transform="translate(-7.345 -10.837)"/><path class="hs" d="M39.741,41.991a8.846,8.846,0,1,1-8.846-8.847,8.847,8.847,0,0,1,8.846,8.847" transform="translate(-7.209 -10.837)"/><path class="ht" d="M39.325,41.991a8.846,8.846,0,1,1-8.846-8.847,8.847,8.847,0,0,1,8.846,8.847" transform="translate(-7.073 -10.837)"/><path class="hu" d="M38.909,41.991a8.846,8.846,0,1,1-8.846-8.847,8.847,8.847,0,0,1,8.846,8.847" transform="translate(-6.937 -10.837)"/><path class="hv" d="M38.493,41.991a8.846,8.846,0,1,1-8.846-8.847,8.847,8.847,0,0,1,8.846,8.847" transform="translate(-6.801 -10.837)"/><path class="hw" d="M38.077,41.991a8.846,8.846,0,1,1-8.846-8.847,8.847,8.847,0,0,1,8.846,8.847" transform="translate(-6.665 -10.837)"/><path class="hx" d="M37.661,41.991a8.846,8.846,0,1,1-8.846-8.847,8.847,8.847,0,0,1,8.846,8.847" transform="translate(-6.529 -10.837)"/><path class="hy" d="M37.245,41.991A8.846,8.846,0,1,1,28.4,33.144a8.847,8.847,0,0,1,8.846,8.847" transform="translate(-6.393 -10.837)"/><path class="hz" d="M36.829,41.991a8.846,8.846,0,1,1-8.846-8.847,8.847,8.847,0,0,1,8.846,8.847" transform="translate(-6.257 -10.837)"/><path class="ia" d="M36.413,41.991a8.846,8.846,0,1,1-8.846-8.847,8.847,8.847,0,0,1,8.846,8.847" transform="translate(-6.121 -10.837)"/><path class="ib" d="M36,41.991a8.846,8.846,0,1,1-8.846-8.847A8.847,8.847,0,0,1,36,41.991" transform="translate(-5.985 -10.837)"/><path class="ic" d="M35.58,41.991a8.846,8.846,0,1,1-8.846-8.847,8.847,8.847,0,0,1,8.846,8.847" transform="translate(-5.848 -10.837)"/><path class="id" d="M35.164,41.991a8.846,8.846,0,1,1-8.846-8.847,8.847,8.847,0,0,1,8.846,8.847" transform="translate(-5.712 -10.837)"/><path class="ie" d="M34.748,41.991A8.846,8.846,0,1,1,25.9,33.144a8.846,8.846,0,0,1,8.846,8.847" transform="translate(-5.576 -10.837)"/><path class="if" d="M34.333,41.991a8.846,8.846,0,1,1-8.846-8.847,8.847,8.847,0,0,1,8.846,8.847" transform="translate(-5.441 -10.837)"/><path class="ig" d="M33.917,41.991a8.846,8.846,0,1,1-8.846-8.847,8.847,8.847,0,0,1,8.846,8.847" transform="translate(-5.305 -10.837)"/><path class="ih" d="M33.5,41.991a8.846,8.846,0,1,1-8.847-8.847A8.847,8.847,0,0,1,33.5,41.991" transform="translate(-5.169 -10.837)"/><path class="ii" d="M33.085,41.991a8.846,8.846,0,1,1-8.846-8.847,8.847,8.847,0,0,1,8.846,8.847" transform="translate(-5.033 -10.837)"/><path class="ij" d="M32.669,41.991a8.846,8.846,0,1,1-8.846-8.847,8.847,8.847,0,0,1,8.846,8.847" transform="translate(-4.897 -10.837)"/><path class="ik" d="M32.253,41.991a8.846,8.846,0,1,1-8.846-8.847,8.847,8.847,0,0,1,8.846,8.847" transform="translate(-4.761 -10.837)"/><path class="il" d="M31.837,41.991a8.846,8.846,0,1,1-8.846-8.847,8.847,8.847,0,0,1,8.846,8.847" transform="translate(-4.625 -10.837)"/><path class="im" d="M31.421,41.991a8.846,8.846,0,1,1-8.846-8.847,8.847,8.847,0,0,1,8.846,8.847" transform="translate(-4.489 -10.837)"/><path class="in" d="M31,41.991a8.846,8.846,0,1,1-8.846-8.847A8.847,8.847,0,0,1,31,41.991" transform="translate(-4.353 -10.837)"/><path class="io" d="M30.589,41.991a8.846,8.846,0,1,1-8.846-8.847,8.847,8.847,0,0,1,8.846,8.847" transform="translate(-4.217 -10.837)"/><path class="ip" d="M30.173,41.991a8.846,8.846,0,1,1-8.846-8.847,8.847,8.847,0,0,1,8.846,8.847" transform="translate(-4.08 -10.837)"/><path class="iq" d="M29.757,41.991a8.846,8.846,0,1,1-8.846-8.847,8.847,8.847,0,0,1,8.846,8.847" transform="translate(-3.944 -10.837)"/><path class="ir" d="M29.341,41.991a8.846,8.846,0,1,1-8.846-8.847,8.847,8.847,0,0,1,8.846,8.847" transform="translate(-3.808 -10.837)"/><path class="is" d="M28.925,41.991a8.846,8.846,0,1,1-8.846-8.847,8.847,8.847,0,0,1,8.846,8.847" transform="translate(-3.672 -10.837)"/><path class="it" d="M28.509,41.991a8.846,8.846,0,1,1-8.846-8.847,8.847,8.847,0,0,1,8.846,8.847" transform="translate(-3.536 -10.837)"/><path class="iu" d="M28.093,41.991a8.846,8.846,0,1,1-8.846-8.847,8.847,8.847,0,0,1,8.846,8.847" transform="translate(-3.4 -10.837)"/><path class="iv" d="M27.677,41.991a8.846,8.846,0,1,1-8.846-8.847,8.847,8.847,0,0,1,8.846,8.847" transform="translate(-3.264 -10.837)"/><path class="iw" d="M27.261,41.991a8.846,8.846,0,1,1-8.846-8.847,8.847,8.847,0,0,1,8.846,8.847" transform="translate(-3.128 -10.837)"/><path class="ix" d="M26.845,41.991A8.846,8.846,0,1,1,18,33.144a8.847,8.847,0,0,1,8.846,8.847" transform="translate(-2.992 -10.837)"/><path class="iy" d="M26.429,41.991a8.846,8.846,0,1,1-8.846-8.847,8.847,8.847,0,0,1,8.846,8.847" transform="translate(-2.856 -10.837)"/><path class="iz" d="M26.013,41.991a8.846,8.846,0,1,1-8.846-8.847,8.847,8.847,0,0,1,8.846,8.847" transform="translate(-2.72 -10.837)"/><path class="ja" d="M25.6,41.991a8.846,8.846,0,1,1-8.846-8.847A8.847,8.847,0,0,1,25.6,41.991" transform="translate(-2.584 -10.837)"/><path class="jb" d="M25.181,41.991a8.846,8.846,0,1,1-8.846-8.847,8.847,8.847,0,0,1,8.846,8.847" transform="translate(-2.448 -10.837)"/><path class="jc" d="M24.765,41.991a8.846,8.846,0,1,1-8.846-8.847,8.847,8.847,0,0,1,8.846,8.847" transform="translate(-2.312 -10.837)"/><path class="jd" d="M24.349,41.991A8.846,8.846,0,1,1,15.5,33.144a8.847,8.847,0,0,1,8.846,8.847" transform="translate(-2.176 -10.837)"/><path class="je" d="M23.933,41.991a8.846,8.846,0,1,1-8.846-8.847,8.847,8.847,0,0,1,8.846,8.847" transform="translate(-2.04 -10.837)"/><path class="jf" d="M23.517,41.991a8.846,8.846,0,1,1-8.846-8.847,8.847,8.847,0,0,1,8.846,8.847" transform="translate(-1.904 -10.837)"/><path class="jg" d="M23.1,41.991a8.846,8.846,0,1,1-8.846-8.847A8.847,8.847,0,0,1,23.1,41.991" transform="translate(-1.768 -10.837)"/><path class="jh" d="M22.684,41.991a8.846,8.846,0,1,1-8.846-8.847,8.847,8.847,0,0,1,8.846,8.847" transform="translate(-1.632 -10.837)"/><path class="ji" d="M22.269,41.991a8.846,8.846,0,1,1-8.847-8.847,8.847,8.847,0,0,1,8.847,8.847" transform="translate(-1.496 -10.837)"/><path class="jj" d="M21.853,41.991a8.846,8.846,0,1,1-8.847-8.847,8.847,8.847,0,0,1,8.847,8.847" transform="translate(-1.36 -10.837)"/><path class="jk" d="M21.436,41.991a8.846,8.846,0,1,1-8.846-8.847,8.846,8.846,0,0,1,8.846,8.847" transform="translate(-1.224 -10.837)"/><path class="jl" d="M21.02,41.991a8.846,8.846,0,1,1-8.846-8.847,8.846,8.846,0,0,1,8.846,8.847" transform="translate(-1.088 -10.837)"/><path class="jm" d="M20.6,41.991a8.846,8.846,0,1,1-8.846-8.847A8.846,8.846,0,0,1,20.6,41.991" transform="translate(-0.952 -10.837)"/><path class="jn" d="M20.189,41.991a8.846,8.846,0,1,1-8.846-8.847,8.847,8.847,0,0,1,8.846,8.847" transform="translate(-0.816 -10.837)"/><path class="jo" d="M19.773,41.991a8.846,8.846,0,1,1-8.846-8.847,8.847,8.847,0,0,1,8.846,8.847" transform="translate(-0.68 -10.837)"/><path class="jp" d="M19.357,41.991a8.846,8.846,0,1,1-8.846-8.847,8.847,8.847,0,0,1,8.846,8.847" transform="translate(-0.544 -10.837)"/><path class="jq" d="M18.941,41.991a8.846,8.846,0,1,1-8.846-8.847,8.847,8.847,0,0,1,8.846,8.847" transform="translate(-0.408 -10.837)"/><path class="jr" d="M18.525,41.991a8.846,8.846,0,1,1-8.846-8.847,8.847,8.847,0,0,1,8.846,8.847" transform="translate(-0.272 -10.837)"/><path class="js" d="M18.109,41.991a8.846,8.846,0,1,1-8.846-8.847,8.847,8.847,0,0,1,8.846,8.847" transform="translate(-0.136 -10.837)"/><path class="gf" d="M17.693,41.991a8.846,8.846,0,1,1-8.846-8.847,8.847,8.847,0,0,1,8.846,8.847" transform="translate(0 -10.837)"/></g></g></svg>